<svg id="SvgjsSvg1033" width="288" height="288" xmlns="http://www.w3.org/2000/svg" version="1.1" xmlns:xlink="http://www.w3.org/1999/xlink" xmlns:svgjs="http://svgjs.com/svgjs"><defs id="SvgjsDefs1034"></defs><g id="SvgjsG1035"><svg xmlns="http://www.w3.org/2000/svg" viewBox="0 0 48 48" width="288" height="288"><g fill-rule="evenodd" fill="#000000" class="color000 svgShape"><path fill="#363650" d="M22.902 3.285a2.262 2.262 0 0 1 2.196 0c3.351 1.883 13.449 7.55 16.804 9.434A2.125 2.125 0 0 1 43 14.566v18.868c0 .761-.418 1.464-1.098 1.847l-16.804 9.434a2.262 2.262 0 0 1-2.196 0L6.098 35.28A2.125 2.125 0 0 1 5 33.434V14.566c0-.761.418-1.464 1.098-1.847 3.351-1.883 13.453-7.551 16.804-9.434z" class="color37474F svgShape"></path><path fill="#52527c" d="M5.305 34.402C5.039 34.047 5 33.711 5 33.254V14.496a2.11 2.11 0 0 1 1.094-1.836c3.343-1.87 13.406-7.508 16.75-9.379.676-.379 1.593-.37 2.27.008 3.343 1.871 13.37 7.457 16.714 9.328.27.153.477.336.66.578z" class="color546E7A svgShape"></path><path fill="#ffffff" d="M24 10c7.727 0 14 6.273 14 14s-6.273 14-14 14-14-6.273-14-14 6.273-14 14-14zm0 7c3.863 0 7 3.137 7 7s-3.137 7-7 7-7-3.137-7-7 3.137-7 7-7z" class="colorFFF svgShape"></path><path fill="#444465" d="M42.484 13.203c.516.485.508 1.211.508 1.785 0 3.797-.031 14.59.008 18.383.004.399-.129.816-.324 1.129L23.594 24z" class="color455A64 svgShape"></path><path fill="#ffffff" d="M34 20h1v8h-1zM37 20h1v8h-1z" class="colorFFF svgShape"></path><path fill="#ffffff" d="M32 25h8v1h-8zM32 22h8v1h-8z" class="colorFFF svgShape"></path></g></svg></g></svg>