<svg xmlns="http://www.w3.org/2000/svg" width="32" height="32" viewBox="0 0 8.467 8.467"><path fill-rule="evenodd" d="M1.059.266a.798.798 0 00-.795.792v6.35a.8.8 0 00.795.795h6.35c.434 0 .792-.36.792-.795v-6.35a.796.796 0 00-.793-.792h-6.35zm0 .527h6.35a.26.26 0 01.265.265v1.323H2.646c-.358-.005-.358.534 0 .53h5.028v4.497a.26.26 0 01-.266.266h-6.35a.26.26 0 01-.265-.266V2.91h.794c.358.005.358-.534 0-.529H.793V1.058a.26.26 0 01.266-.265zm.528.53a.265.265 0 100 .529.265.265 0 000-.53zm1.059 0a.265.265 0 100 .529.265.265 0 000-.53zm1.058 0a.265.265 0 100 .529.265.265 0 000-.53zM2.646 3.969a.265.265 0 100 .529H5.82a.265.265 0 100-.53H2.646zM2.62 5.027a.265.265 0 00.027.53H5.82a.265.265 0 000-.53H2.646a.265.265 0 00-.027 0zm0 1.059a.265.265 0 00.027.529h1.586a.265.265 0 100-.53H2.646a.265.265 0 00-.027 0z" color="#000" font-family="sans-serif" font-weight="400" overflow="visible" paint-order="stroke fill markers" style="line-height:normal;font-variant-ligatures:normal;font-variant-position:normal;font-variant-caps:normal;font-variant-numeric:normal;font-variant-alternates:normal;font-feature-settings:normal;text-indent:0;text-align:start;text-decoration-line:none;text-decoration-style:solid;text-decoration-color:#000;text-transform:none;text-orientation:mixed;shape-padding:0;isolation:auto;mix-blend-mode:normal"/></svg>